<svg width="53" height="28" viewBox="0 0 53 28" fill="none" xmlns="http://www.w3.org/2000/svg">
<path d="M0 16.0744H4.03232L6.27303 4.92892H2.24018L0 16.0744ZM2.46235 3.59959H6.51156L7.17701 0.264916H3.12939L2.46235 3.59959ZM5.60071 19.2106H9.63356L12.0975 7.1691H15.1219L15.5678 4.92892H12.6015L12.7139 4.42494C12.8817 3.47505 13.2178 2.40852 14.7298 2.40852C15.6269 2.40852 16.4665 2.46446 17.3061 2.85656L17.7547 0.504502C16.819 0.174345 15.8344 0.00380269 14.8422 0C11.5935 0 9.35386 1.90455 8.5132 4.92892H7.11316L6.66512 7.1691H8.06517L5.60071 19.2106Z" fill="#EA1D2C"/>
<path d="M18.3705 16.2987C23.1311 16.2987 26.4357 11.9857 26.4357 8.45731C26.4357 5.82504 24.0272 4.70468 21.6751 4.70468C16.4649 4.70468 13.6099 9.35602 13.6099 12.5461C13.6099 15.1784 16.0744 16.2987 18.3705 16.2987ZM31.1414 16.2987C35.902 16.2987 39.2065 11.9857 39.2065 8.45731C39.2065 5.82504 36.7421 4.70468 34.3895 4.70468C29.1809 4.70468 26.3249 9.35338 26.3249 12.5461C26.3249 15.1784 28.8453 16.2987 31.1414 16.2987ZM45.7593 16.0744H49.7356L52.9832 0.22644H48.9509L47.9984 4.93108L46.3181 4.76326C42.3977 4.76326 38.8134 9.80353 38.8134 13.3883C38.8134 14.8443 39.7633 16.3008 41.3897 16.3008C43.6859 16.3008 45.3102 15.1805 45.9809 14.0601H46.2047L45.7593 16.0744ZM33.3246 24.4198C30.1946 27.0132 26.1744 28.2795 22.1231 27.9482C16.8021 27.612 12.9936 23.5232 12.3218 19.2107H12.5455C13.7778 21.9021 16.7462 24.4198 20.3869 24.8114C24.081 25.2594 28.5081 23.5797 30.916 21.2831L28.2278 19.2107H36.3489L34.5547 27.8363L33.3784 24.4758L33.3246 24.4198Z" fill="#EA1D2C"/>
</svg>
