<svg width="13" height="24" viewBox="0 0 13 24" fill="none" xmlns="http://www.w3.org/2000/svg">
<path d="M6.99803 10.27C4.09921 9.503 3.16699 8.71 3.16699 7.475C3.16699 6.058 4.45678 5.07 6.61493 5.07C8.88801 5.07 9.73084 6.175 9.80746 7.8H12.6297C12.5403 5.564 11.1994 3.51 8.53045 2.847V0H4.69941V2.808C2.222 3.354 0.229862 4.992 0.229862 7.501C0.229862 10.504 2.66896 11.999 6.23183 12.87C9.42436 13.65 10.0629 14.794 10.0629 16.003C10.0629 16.9 9.43713 18.33 6.61493 18.33C3.98428 18.33 2.9499 17.134 2.80943 15.6H0C0.153242 18.447 2.24754 20.046 4.69941 20.579V23.4H8.53045V20.605C11.0206 20.124 13 18.655 13 15.99C13 12.298 9.89686 11.037 6.99803 10.27Z" fill="#EA1D2C"/>
</svg>
