<svg width="18" height="22" viewBox="0 0 18 22" fill="none" xmlns="http://www.w3.org/2000/svg">
<path d="M8.52632 21.6V18.1578C3.78 17.9092 0 13.9315 0 9.08367C0 4.07331 4.03579 0 9 0C13.9642 0 18 4.07331 18 9.08367C18 13.8167 14.7411 18.5785 9.88105 20.9402L8.52632 21.6ZM9 1.91235C5.0779 1.91235 1.89474 5.1251 1.89474 9.08367C1.89474 13.0422 5.0779 16.255 9 16.255H10.4211V18.4542C13.8695 16.255 16.1053 12.6406 16.1053 9.08367C16.1053 5.1251 12.9221 1.91235 9 1.91235ZM8.05263 12.9084H9.94737V14.8207H8.05263V12.9084ZM9.94737 11.4741H8.05263C8.05263 8.36653 10.8947 8.60558 10.8947 6.69323C10.8947 5.64143 10.0421 4.78088 9 4.78088C7.95789 4.78088 7.10526 5.64143 7.10526 6.69323H5.21053C5.21053 4.58008 6.90632 2.86853 9 2.86853C11.0937 2.86853 12.7895 4.58008 12.7895 6.69323C12.7895 9.08367 9.94737 9.32271 9.94737 11.4741Z" fill="#EA1D2C"/>
</svg>
