<svg width="33" height="19" viewBox="0 0 33 19" fill="none" xmlns="http://www.w3.org/2000/svg">
<path d="M29.9455 0.486328C27.7744 0.486328 26.5616 2.6424 27.0557 4.24448L21.7404 9.57477C21.2912 9.44002 20.6324 9.44002 20.1832 9.57477L16.3652 5.75673C16.8743 4.15465 15.6615 1.9836 13.4755 1.9836C11.3044 1.9836 10.0766 4.13967 10.5857 5.75673L3.75815 12.5693C2.15607 12.0752 0 13.288 0 15.4591C0 17.1061 1.34755 18.4536 2.99455 18.4536C5.16559 18.4536 6.37838 16.2975 5.88428 14.6954L12.6969 7.86788C13.1461 8.00264 13.8049 8.00264 14.254 7.86788L18.0721 11.6859C17.563 13.288 18.7758 15.4591 20.9618 15.4591C23.1329 15.4591 24.3606 13.303 23.8516 11.6859L29.1818 6.37061C30.7839 6.86471 32.94 5.65192 32.94 3.48087C32.94 1.83387 31.5925 0.486328 29.9455 0.486328Z" fill="#828282"/>
</svg>
