<svg width="53" height="53" viewBox="0 0 53 53" fill="none" xmlns="http://www.w3.org/2000/svg">
<circle cx="26.5" cy="26.5" r="26.5" fill="#EA1D2C"/>
<path d="M31.1619 25.6286V16.5429L26.8714 12L22.581 16.5429V19.5714H14V40.7714H39.7429V25.6286H31.1619ZM19.7206 37.7429H16.8603V34.7143H19.7206V37.7429ZM19.7206 31.6857H16.8603V28.6571H19.7206V31.6857ZM19.7206 25.6286H16.8603V22.6H19.7206V25.6286ZM28.3016 37.7429H25.4413V34.7143H28.3016V37.7429ZM28.3016 31.6857H25.4413V28.6571H28.3016V31.6857ZM28.3016 25.6286H25.4413V22.6H28.3016V25.6286ZM28.3016 19.5714H25.4413V16.5429H28.3016V19.5714ZM36.8825 37.7429H34.0222V34.7143H36.8825V37.7429ZM36.8825 31.6857H34.0222V28.6571H36.8825V31.6857Z" fill="white"/>
</svg>
