<svg width="53" height="53" viewBox="0 0 53 53" fill="none" xmlns="http://www.w3.org/2000/svg">
<circle cx="26.5" cy="26.5" r="26.5" fill="#EA1D2C"/>
<path d="M39.2727 15.5909C37.7591 15.1136 36.0955 14.9091 34.5 14.9091C31.8409 14.9091 28.9773 15.4545 27 16.9545C25.0227 15.4545 22.1591 14.9091 19.5 14.9091C16.8409 14.9091 13.9773 15.4545 12 16.9545V36.9318C12 37.2727 12.3409 37.6136 12.6818 37.6136C12.8182 37.6136 12.8864 37.5454 13.0227 37.5454C14.8636 36.6591 17.5227 36.0454 19.5 36.0454C22.1591 36.0454 25.0227 36.5909 27 38.0909C28.8409 36.9318 32.1818 36.0454 34.5 36.0454C36.75 36.0454 39.0682 36.4545 40.9773 37.4772C41.1136 37.5454 41.1818 37.5454 41.3182 37.5454C41.6591 37.5454 42 37.2045 42 36.8636V16.9545C41.1818 16.3409 40.2955 15.9318 39.2727 15.5909ZM39.2727 34C37.7727 33.5227 36.1364 33.3181 34.5 33.3181C32.1818 33.3181 28.8409 34.2045 27 35.3636V19.6818C28.8409 18.5227 32.1818 17.6363 34.5 17.6363C36.1364 17.6363 37.7727 17.8409 39.2727 18.3181V34Z" fill="white"/>
<path d="M34.5001 23.0909C35.7001 23.0909 36.8592 23.2137 37.9092 23.4455V21.3727C36.832 21.1682 35.6729 21.0455 34.5001 21.0455C32.182 21.0455 30.082 21.4409 28.3638 22.1773V24.4409C29.9047 23.5682 32.0456 23.0909 34.5001 23.0909Z" fill="white"/>
<path d="M28.3638 25.8045V28.0681C29.9047 27.1954 32.0456 26.7181 34.5001 26.7181C35.7001 26.7181 36.8592 26.8409 37.9092 27.0727V24.9999C36.832 24.7954 35.6729 24.6727 34.5001 24.6727C32.182 24.6727 30.082 25.0818 28.3638 25.8045Z" fill="white"/>
<path d="M34.5001 28.3137C32.182 28.3137 30.082 28.7091 28.3638 29.4455V31.7091C29.9047 30.8364 32.0456 30.3591 34.5001 30.3591C35.7001 30.3591 36.8592 30.4818 37.9092 30.7137V28.6409C36.832 28.4228 35.6729 28.3137 34.5001 28.3137Z" fill="white"/>
</svg>
