<svg width="53" height="53" viewBox="0 0 53 53" fill="none" xmlns="http://www.w3.org/2000/svg">
<circle cx="26.5" cy="26.5" r="26.5" fill="#EA1D2C"/>
<path d="M12 36.9999C12 38.6498 13.35 39.9998 15 39.9998H38.9998C40.6498 39.9998 41.9998 38.6498 41.9998 36.9999V32.4999H12V36.9999ZM15 35.4999H38.9998V36.9999H15V35.4999Z" fill="white"/>
<path d="M36.9895 25.7499C34.0645 25.7499 33.8545 27.2499 31.9945 27.2499C30.2095 27.2499 29.8645 25.7499 26.9996 25.7499C24.0746 25.7499 23.8646 27.2499 22.0046 27.2499C20.2196 27.2499 19.8746 25.7499 17.0096 25.7499C14.0846 25.7499 13.8746 27.2499 12.0146 27.2499V30.2499C14.8646 30.2499 15.2696 28.7499 17.0396 28.7499C18.8246 28.7499 19.1696 30.2499 22.0346 30.2499C24.9596 30.2499 25.1696 28.7499 27.0296 28.7499C28.8146 28.7499 29.1596 30.2499 32.0245 30.2499C34.9495 30.2499 35.1595 28.7499 37.0195 28.7499C38.8045 28.7499 39.1195 30.2199 41.9995 30.2499L41.9845 27.2799C39.5695 26.7849 39.5545 25.7499 36.9895 25.7499Z" fill="white"/>
<path d="M41.9998 21.9999C42.0298 16 35.5799 13 26.9999 13C18.435 13 12 16 12 21.9999V23.4999H41.9998V21.9999ZM15.27 20.5C16.515 17.215 21.9149 16 26.9999 16C31.9649 16 35.8949 17.095 37.7849 18.985C38.2349 19.45 38.5648 19.945 38.7598 20.5H15.27Z" fill="white"/>
</svg>
