<svg width="27" height="26" viewBox="0 0 27 26" fill="none" xmlns="http://www.w3.org/2000/svg">
<path d="M19.575 0C17.226 0 14.9715 1.10963 13.5 2.86312C12.0285 1.10963 9.774 0 7.425 0C3.267 0 0 3.31519 0 7.53453C0 12.7128 4.59 16.9321 11.5425 23.3433L13.5 25.1379L15.4575 23.3296C22.41 16.9321 27 12.7128 27 7.53453C27 3.31519 23.733 0 19.575 0ZM13.635 21.3022L13.5 21.4392L13.365 21.3022C6.939 15.3978 2.7 11.4936 2.7 7.53453C2.7 4.7947 4.725 2.73983 7.425 2.73983C9.504 2.73983 11.529 4.09604 12.2445 5.97283H14.769C15.471 4.09604 17.496 2.73983 19.575 2.73983C22.275 2.73983 24.3 4.7947 24.3 7.53453C24.3 11.4936 20.061 15.3978 13.635 21.3022Z" fill="#828282"/>
</svg>
