<svg width="30" height="27" viewBox="0 0 30 27" fill="none" xmlns="http://www.w3.org/2000/svg">
<path d="M15.9046 0.81171L15.8339 0.75H15.7401H14.239H14.1451L14.0744 0.811838L0.835394 12.3935L0.629849 12.5733L0.827077 12.7622L2.30735 14.1799L2.47214 14.3377L2.64432 14.188L4.31515 12.735V25.2016V25.3083L4.39223 25.3821L5.43467 26.3805L5.50719 26.45H5.60759H11.8622H11.9627L12.0352 26.3805L13.0776 25.3821L13.1547 25.3083V25.2016V18.4627H16.8245V25.2016V25.3083L16.9015 25.3821L17.944 26.3805L18.0165 26.45H18.1169H24.3716H24.472L24.5445 26.3805L25.5869 25.3821L25.664 25.3083V25.2016V12.7186L27.3558 14.1881L27.528 14.3377L27.6927 14.1799L29.1729 12.7622L29.3703 12.5731L29.1645 12.3933L15.9046 0.81171ZM10.6469 17.0337L10.5698 17.1075V17.2143V23.9532H6.90004V10.485L14.9897 3.44787L23.0791 10.4731V23.9532H19.4093V17.2143V17.1075L19.3323 17.0337L18.2898 16.0353L18.2173 15.9658H18.1169H11.8622H11.7618L11.6893 16.0353L10.6469 17.0337Z" fill="#EA1D2C" stroke="#EA1D2C" stroke-width="0.5"/>
</svg>
