<svg width="24" height="30" viewBox="0 0 24 30" fill="none" xmlns="http://www.w3.org/2000/svg">
<path d="M12 10.9656C14.9467 10.9656 17.3333 8.51201 17.3333 5.48278C17.3333 2.45354 14.9467 0 12 0C9.05333 0 6.66667 2.45354 6.66667 5.48278C6.66667 8.51201 9.05333 10.9656 12 10.9656ZM12 2.74139C13.4667 2.74139 14.6667 3.97501 14.6667 5.48278C14.6667 6.99054 13.4667 8.22417 12 8.22417C10.5333 8.22417 9.33333 6.99054 9.33333 5.48278C9.33333 3.97501 10.5333 2.74139 12 2.74139ZM12 14.4608C8.85333 11.4453 4.64 9.59486 0 9.59486V24.6725C4.64 24.6725 8.85333 26.5229 12 29.5385C15.1467 26.5366 19.36 24.6725 24 24.6725V9.59486C19.36 9.59486 15.1467 11.4453 12 14.4608ZM21.3333 22.1093C17.96 22.5753 14.76 23.8912 12 25.9747C9.25333 23.8912 6.04 22.5616 2.66667 22.0956V12.5693C5.46667 13.0901 8.06667 14.4197 10.1867 16.4483L12 18.2028L13.8133 16.462C15.9333 14.4334 18.5333 13.1038 21.3333 12.583V22.1093Z" fill="#828282"/>
</svg>
