<svg width="21" height="25" viewBox="0 0 21 25" fill="none" xmlns="http://www.w3.org/2000/svg">
<path d="M10.5 0C6.33037 0 2.59288 1.89822 0 4.93043L10.5 24.6522L21 4.93043C18.4188 1.91054 14.6696 0 10.5 0ZM10.5 19.6231L2.91991 5.37417C5.03393 3.51293 7.72024 2.46522 10.5 2.46522C13.2798 2.46522 15.9661 3.51293 18.0801 5.37417L10.5 19.6231ZM6.99611 4.31413C6.0267 4.31413 5.24416 5.13998 5.24416 6.16304C5.24416 7.18611 6.0267 8.01196 6.99611 8.01196C7.96552 8.01196 8.74805 7.18611 8.74805 6.16304C8.74805 5.13998 7.95384 4.31413 6.99611 4.31413ZM8.74805 13.5587C8.74805 14.5818 9.53059 15.4076 10.5 15.4076C11.4577 15.4076 12.2519 14.5818 12.2519 13.5587C12.2519 12.5356 11.4577 11.7098 10.5 11.7098C9.54227 11.7098 8.74805 12.5356 8.74805 13.5587Z" fill="#828282"/>
</svg>
