<svg width="25" height="26" viewBox="0 0 25 26" fill="none" xmlns="http://www.w3.org/2000/svg">
<path d="M23.884 12.4027L12.8095 1.32819C12.3665 0.885212 11.7513 0.614502 11.0745 0.614502H2.461C1.10745 0.614502 0 1.72195 0 3.0755V11.689C0 12.3658 0.27071 12.981 0.725995 13.4363L11.8005 24.5108C12.2435 24.9538 12.8587 25.2245 13.5355 25.2245C14.2123 25.2245 14.8275 24.9538 15.2705 24.4985L23.884 15.885C24.3393 15.442 24.61 14.8268 24.61 14.15C24.61 13.4732 24.327 12.8457 23.884 12.4027ZM13.5355 22.7758L2.461 11.689V3.0755H11.0745V3.0632L22.149 14.1377L13.5355 22.7758Z" fill="#EA1D2C"/>
</svg>
