<svg width="25" height="25" viewBox="0 0 25 25" fill="none" xmlns="http://www.w3.org/2000/svg">
<path d="M23.884 11.7882L12.8095 0.71369C12.3665 0.27071 11.7513 0 11.0745 0H2.461C1.10745 0 0 1.10745 0 2.461V11.0745C0 11.7513 0.27071 12.3665 0.725995 12.8218L11.8005 23.8963C12.2435 24.3393 12.8587 24.61 13.5355 24.61C14.2123 24.61 14.8275 24.3393 15.2705 23.884L23.884 15.2705C24.3393 14.8275 24.61 14.2123 24.61 13.5355C24.61 12.8587 24.327 12.2312 23.884 11.7882ZM13.5355 22.1613L2.461 11.0745V2.461H11.0745V2.44869L22.149 13.5232L13.5355 22.1613Z" fill="#828282"/>
</svg>
