<svg width="28" height="26" viewBox="0 0 28 26" fill="none" xmlns="http://www.w3.org/2000/svg">
<path d="M27.8515 8.24571L26.3816 2.12792C26.0736 0.867969 24.9816 0 23.7077 0H4.26234C3.00238 0 1.89642 0.881969 1.60243 2.12792L0.132485 8.24571C-0.203503 9.67366 0.104486 11.1296 1.00045 12.2776C1.11245 12.4316 1.26645 12.5436 1.39244 12.6836V22.3992C1.39244 23.9392 2.6524 25.1991 4.19234 25.1991H23.7917C25.3316 25.1991 26.5916 23.9392 26.5916 22.3992V12.6836C26.7175 12.5576 26.8715 12.4316 26.9835 12.2916C27.8795 11.1436 28.2015 9.67366 27.8515 8.24571ZM23.6657 2.7859L25.1356 8.90368C25.2756 9.49166 25.1496 10.0796 24.7856 10.5416C24.5896 10.7936 24.1696 11.1996 23.4697 11.1996C22.6157 11.1996 21.8737 10.5136 21.7757 9.60366L20.9637 2.7999L23.6657 2.7859ZM15.3919 2.7999H18.1358L18.8918 9.12768C18.9618 9.67366 18.7938 10.2196 18.4298 10.6256C18.1218 10.9896 17.6739 11.1996 17.0999 11.1996C16.1619 11.1996 15.3919 10.3736 15.3919 9.36567V2.7999ZM9.07817 9.12768L9.84814 2.7999H12.592V9.36567C12.592 10.3736 11.8221 11.1996 10.7861 11.1996C10.3101 11.1996 9.87614 10.9896 9.54015 10.6256C9.19016 10.2196 9.02217 9.67366 9.07817 9.12768ZM2.84839 8.90368L4.26234 2.7999H7.02024L6.20827 9.60366C6.09627 10.5136 5.3683 11.1996 4.51433 11.1996C3.82835 11.1996 3.39437 10.7936 3.21238 10.5416C2.83439 10.0936 2.70839 9.49166 2.84839 8.90368ZM4.19234 22.3992V13.9575C4.30434 13.9715 4.40233 13.9995 4.51433 13.9995C5.73229 13.9995 6.83825 13.4955 7.65022 12.6696C8.49019 13.5095 9.61015 13.9995 10.8841 13.9995C12.1021 13.9995 13.194 13.4955 14.006 12.6976C14.832 13.4955 15.9519 13.9995 17.2119 13.9995C18.3878 13.9995 19.5078 13.5095 20.3478 12.6696C21.1597 13.4955 22.2657 13.9995 23.4837 13.9995C23.5957 13.9995 23.6937 13.9715 23.8057 13.9575V22.3992H4.19234Z" fill="#EA1D2C"/>
</svg>
