<svg width="14" height="24" viewBox="0 0 14 24" fill="none" xmlns="http://www.w3.org/2000/svg">
<path d="M11.3077 0H2.69231C1.20615 0 0 1.20273 0 2.68466V20.9403C0 22.4223 1.20615 23.625 2.69231 23.625H11.3077C12.7938 23.625 14 22.4223 14 20.9403V2.68466C14 1.20273 12.7938 0 11.3077 0ZM7 22.5511C6.10615 22.5511 5.38462 21.8316 5.38462 20.9403C5.38462 20.049 6.10615 19.3295 7 19.3295C7.89385 19.3295 8.61539 20.049 8.61539 20.9403C8.61539 21.8316 7.89385 22.5511 7 22.5511ZM11.8462 18.2557H2.15385V3.22159H11.8462V18.2557Z" fill="#828282"/>
</svg>
