<svg width="26" height="26" viewBox="0 0 26 26" fill="none" xmlns="http://www.w3.org/2000/svg">
<path d="M13 6.76929L14.261 9.79105L14.872 11.2558L16.432 11.3877L19.643 11.6648L17.199 13.8157L16.016 14.8581L16.367 16.4152L17.095 19.5953L14.339 17.9063L13 17.0618L11.661 17.8799L8.905 19.5689L9.633 16.3888L9.984 14.8317L8.801 13.7893L6.357 11.6384L9.568 11.3613L11.128 11.2294L11.739 9.76466L13 6.76929ZM13 0L9.347 8.74861L0 9.55353L7.098 15.795L4.966 25.0714L13 20.1495L21.034 25.0714L18.902 15.795L26 9.55353L16.653 8.74861L13 0Z" fill="#EA1D2C"/>
</svg>
