<svg width="23" height="25" viewBox="0 0 23 25" fill="none" xmlns="http://www.w3.org/2000/svg">
<path d="M22.6851 20.3176L13.1541 10.058C14.1303 7.41406 13.6265 4.29552 11.6426 2.14871C9.22834 -0.450074 5.47053 -0.687354 2.79387 1.41427L6.8246 5.7644L5.33407 7.35756L1.31384 3.03003C-0.638545 5.89999 -0.418114 9.95634 1.99612 12.5438C3.94851 14.6454 6.79311 15.1991 9.22834 14.2161L18.7908 24.5095C19.2002 24.9502 19.8615 24.9502 20.2709 24.5095L22.6851 21.9107C23.105 21.4814 23.105 20.7695 22.6851 20.3176ZM19.5361 22.1254L9.60622 11.4365C8.96593 11.945 8.25215 12.25 7.50689 12.363C6.07934 12.589 4.57831 12.1258 3.48665 10.9507C2.48947 9.88855 2.02761 8.46487 2.10109 7.06379L5.34457 10.5552L9.79517 5.7644L6.55169 2.27299C7.85328 2.1939 9.16536 2.69106 10.1625 3.75317C11.2962 4.97346 11.7266 6.65702 11.4641 8.22759C11.3382 9.02982 11.0233 9.77556 10.5404 10.4422L20.4598 21.1198L19.5361 22.1254Z" fill="#EA1D2C"/>
</svg>
