<svg width="23" height="23" viewBox="0 0 23 23" fill="none" xmlns="http://www.w3.org/2000/svg">
<path d="M20.4444 2.55556H17.8889V0H5.11111V2.55556H2.55556C1.15 2.55556 0 3.70556 0 5.11111V6.38889C0 9.64722 2.45333 12.305 5.60944 12.7011C6.41444 14.6178 8.13944 16.0617 10.2222 16.4833V20.4444H5.11111V23H17.8889V20.4444H12.7778V16.4833C14.8606 16.0617 16.5856 14.6178 17.3906 12.7011C20.5467 12.305 23 9.64722 23 6.38889V5.11111C23 3.70556 21.85 2.55556 20.4444 2.55556ZM2.55556 6.38889V5.11111H5.11111V9.99222C3.62889 9.45555 2.55556 8.05 2.55556 6.38889ZM11.5 14.0556C9.39167 14.0556 7.66667 12.3306 7.66667 10.2222V2.55556H15.3333V10.2222C15.3333 12.3306 13.6083 14.0556 11.5 14.0556ZM20.4444 6.38889C20.4444 8.05 19.3711 9.45555 17.8889 9.99222V5.11111H20.4444V6.38889Z" fill="#EA1D2C"/>
</svg>
